# Blender 4.1.1
# www.blender.org
mtllib Enemy.mtl
o Cube.001
v 0.997540 0.974609 1.027156
v 0.989532 -1.024932 0.985060
v -1.002402 0.982887 1.014457
v -1.010411 -1.016654 0.972361
v 1.010411 1.016654 -0.972361
v 1.002402 -0.982887 -1.014457
v -0.989532 1.024932 -0.985060
v -0.997540 -0.974609 -1.027156
v 0.330430 -0.008368 0.334611
v -0.993536 0.025161 -1.006108
v -0.334711 -0.005615 0.330388
v 1.006406 0.016883 -0.993409
v -0.991534 0.525046 -0.995584
v 0.332432 0.491517 0.345135
v -0.332708 0.494270 0.340912
v 1.008409 0.516768 -0.982885
v 0.328428 -0.508253 0.324087
v -0.336713 -0.505500 0.319864
v 1.004404 -0.483002 -1.003933
v -0.995538 -0.474724 -1.016632
v 0.995967 -1.003909 -0.014699
v -0.995967 1.003909 0.014699
v -1.003976 -0.995632 -0.027398
v 1.003976 0.995632 0.027398
v 0.056123 -0.000232 0.000356
v -0.056123 0.000232 -0.000356
v 0.058126 0.499653 0.010880
v -0.054121 0.500118 0.010168
v -0.058126 -0.499653 -0.010880
v 0.054121 -0.500118 -0.010168
v 0.999184 -0.993398 -0.514578
v -0.992749 1.014421 -0.485181
v -0.052906 0.010743 -0.500235
v -0.050904 0.510629 -0.489711
v -0.054908 -0.489142 -0.510760
v -1.000758 -0.985121 -0.527277
v 1.007193 1.006143 -0.472481
v 0.059341 0.010279 -0.499523
v 0.061343 0.510164 -0.488999
v 0.057339 -0.489606 -0.510047
vn 0.0040 0.9998 0.0210
vn -0.3577 -0.6745 0.6459
vn 0.0064 0.0210 -0.9998
vn -0.0040 -0.9998 -0.0210
vn -0.0071 -0.8127 0.5826
vn 0.4353 -0.8175 -0.3771
vn 0.7731 0.0103 -0.6342
vn -0.0064 -0.0210 0.9998
vn -0.4738 -0.0166 0.8805
vn -1.0000 0.0041 -0.0063
vn -0.0007 0.7875 0.6163
vn 0.6028 0.7977 0.0207
vn 0.4716 0.8815 0.0216
vn -0.5963 0.8026 0.0130
vn -0.7649 0.0166 -0.6440
vn 1.0000 -0.0041 0.0063
vn 0.4646 -0.8854 -0.0156
vn -0.4372 -0.8139 -0.3826
vn 0.3439 -0.6774 0.6503
vn 0.4624 -0.0205 0.8864
vn -0.4646 0.8854 0.0156
vn -0.4716 -0.8815 -0.0216
vn 0.5963 -0.8026 -0.0130
vn -0.3524 0.6496 0.6737
vn 0.4419 0.8292 -0.3424
vn -0.4306 0.8328 -0.3480
vn -0.6028 -0.7977 -0.0207
vn 0.3492 0.6467 0.6782
vt 0.182831 0.903201
vt 0.055903 0.654486
vt 0.233886 0.858705
vt 0.213706 0.353045
vt 0.248659 0.261535
vt 0.333536 0.339647
vt 0.745570 0.995151
vt 0.620357 0.736823
vt 0.795400 0.953610
vt 0.753810 0.384544
vt 0.675024 0.094393
vt 0.854113 0.294999
vt 0.387050 0.725218
vt 0.371083 0.457327
vt 0.443952 0.575835
vt 0.459336 0.717812
vt 0.511364 0.597365
vt 0.554899 0.551157
vt 0.593362 0.450315
vt 0.605635 0.521556
vt 0.514277 0.500538
vt 0.519882 0.332603
vt 0.848610 0.910513
vt 0.726511 0.648346
vt 0.899636 0.870245
vt 0.373188 0.311845
vt 0.347119 0.182829
vt 0.409057 0.282377
vt 0.450277 0.407648
vt 0.673643 0.695532
vt 0.298060 0.217893
vt 0.443285 0.170664
vt 0.389119 0.128663
vt 0.786166 0.609061
vt 0.954416 0.828182
vt 0.574721 0.183938
vt 0.740325 0.480736
vt 0.633165 0.568155
vt 0.752581 0.551106
vt 0.502679 0.192207
vt 0.410068 0.357329
vt 0.556022 0.627411
vt 0.592550 0.597450
vt 0.453046 0.311664
vt 0.518930 0.740605
vt 0.725175 0.049621
vt 0.904265 0.250227
vt 0.224281 0.424088
vt 0.359773 0.386050
vt 0.284941 0.814209
vt 0.209067 0.520999
vt 0.775327 0.004849
vt 0.954416 0.205454
vt 0.106958 0.609991
vt 0.004849 0.698982
vt 0.185428 0.289813
vt 0.568933 0.786908
s 0
usemtl Material.001
f 5/1/1 32/2/1 37/3/1
f 32/4/2 13/5/2 34/6/2
f 7/7/3 16/8/3 13/9/3
f 2/10/4 23/11/4 21/12/4
f 1/13/5 15/14/5 14/15/5
f 24/16/6 14/15/6 27/17/6
f 25/18/7 17/19/7 30/20/7
f 9/21/8 18/22/8 17/19/8
f 10/23/3 19/24/3 20/25/3
f 33/26/9 20/27/9 35/28/9
f 27/17/7 9/21/7 25/18/7
f 14/15/8 11/29/8 9/21/8
f 13/9/3 12/30/3 10/23/3
f 34/6/9 10/31/9 33/26/9
f 36/32/10 20/27/10 8/33/10
f 20/25/3 6/34/3 8/35/3
f 17/19/11 4/36/11 2/10/11
f 21/37/12 17/19/12 2/10/12
f 40/38/13 21/37/13 31/39/13
f 18/22/14 23/40/14 4/36/14
f 15/14/15 26/41/15 11/29/15
f 39/42/16 25/18/16 38/43/16
f 11/29/15 29/44/15 18/22/15
f 38/43/16 30/20/16 40/38/16
f 37/45/17 27/17/17 39/42/17
f 21/12/4 36/46/4 31/47/4
f 15/14/18 22/48/18 28/49/18
f 24/50/1 3/51/1 1/13/1
f 31/47/4 8/52/4 6/53/4
f 16/8/19 37/45/19 39/42/19
f 12/30/20 40/38/20 19/24/20
f 16/8/20 38/43/20 12/30/20
f 19/24/16 31/39/16 6/34/16
f 29/44/21 36/32/21 23/40/21
f 28/49/10 33/26/10 26/41/10
f 26/41/10 35/28/10 29/44/10
f 22/48/22 34/6/22 28/49/22
f 37/3/1 22/54/1 24/50/1
f 5/1/1 7/55/1 32/2/1
f 32/4/10 7/56/10 13/5/10
f 7/7/3 5/57/3 16/8/3
f 2/10/4 4/36/4 23/11/4
f 1/13/5 3/51/5 15/14/5
f 24/16/23 1/13/23 14/15/23
f 25/18/7 9/21/7 17/19/7
f 9/21/8 11/29/8 18/22/8
f 10/23/3 12/30/3 19/24/3
f 33/26/9 10/31/9 20/27/9
f 27/17/7 14/15/7 9/21/7
f 14/15/8 15/14/8 11/29/8
f 13/9/3 16/8/3 12/30/3
f 34/6/9 13/5/9 10/31/9
f 36/32/24 35/28/24 20/27/24
f 20/25/3 19/24/3 6/34/3
f 17/19/11 18/22/11 4/36/11
f 21/37/25 30/20/25 17/19/25
f 40/38/13 30/20/13 21/37/13
f 18/22/26 29/44/26 23/40/26
f 15/14/15 28/49/15 26/41/15
f 39/42/16 27/17/16 25/18/16
f 11/29/15 26/41/15 29/44/15
f 38/43/16 25/18/16 30/20/16
f 37/45/17 24/16/17 27/17/17
f 21/12/4 23/11/4 36/46/4
f 15/14/27 3/51/27 22/48/27
f 24/50/1 22/54/1 3/51/1
f 31/47/4 36/46/4 8/52/4
f 16/8/16 5/57/16 37/45/16
f 12/30/20 38/43/20 40/38/20
f 16/8/20 39/42/20 38/43/20
f 19/24/28 40/38/28 31/39/28
f 29/44/21 35/28/21 36/32/21
f 28/49/10 34/6/10 33/26/10
f 26/41/10 33/26/10 35/28/10
f 22/48/22 32/4/22 34/6/22
f 37/3/1 32/2/1 22/54/1
