# Blender 4.1.1
# www.blender.org
mtllib Goal.mtl
o 柱体.001
v -1.619022 2.040160 0.000000
v -1.619022 0.746146 -0.000000
v -0.015685 2.040160 0.000000
v -0.015685 0.746146 -0.000000
v 0.000000 -1.000000 -0.062846
v 0.000000 2.062224 -0.062846
v 0.012261 -1.000000 -0.061639
v 0.012261 2.062224 -0.061639
v 0.024050 -1.000000 -0.058062
v 0.024050 2.062224 -0.058062
v 0.034916 -1.000000 -0.052255
v 0.034916 2.062224 -0.052255
v 0.044439 -1.000000 -0.044439
v 0.044439 2.062224 -0.044439
v 0.052255 -1.000000 -0.034916
v 0.052255 2.062224 -0.034916
v 0.058063 -1.000000 -0.024050
v 0.058063 2.062224 -0.024050
v 0.061639 -1.000000 -0.012261
v 0.061639 2.062224 -0.012261
v 0.062846 -1.000000 -0.000000
v 0.062846 2.062224 -0.000000
v 0.061639 -1.000000 0.012261
v 0.061639 2.062224 0.012261
v 0.058063 -1.000000 0.024050
v 0.058063 2.062224 0.024050
v 0.052255 -1.000000 0.034916
v 0.052255 2.062224 0.034916
v 0.044439 -1.000000 0.044439
v 0.044439 2.062224 0.044439
v 0.034916 -1.000000 0.052255
v 0.034916 2.062224 0.052255
v 0.024050 -1.000000 0.058062
v 0.024050 2.062224 0.058062
v 0.012261 -1.000000 0.061639
v 0.012261 2.062224 0.061639
v 0.000000 -1.000000 0.062846
v 0.000000 2.062224 0.062846
v -0.012261 -1.000000 0.061639
v -0.012261 2.062224 0.061639
v -0.024050 -1.000000 0.058062
v -0.024050 2.062224 0.058062
v -0.034916 -1.000000 0.052255
v -0.034916 2.062224 0.052255
v -0.044439 -1.000000 0.044439
v -0.044439 2.062224 0.044439
v -0.052255 -1.000000 0.034916
v -0.052255 2.062224 0.034916
v -0.058062 -1.000000 0.024050
v -0.058062 2.062224 0.024050
v -0.061639 -1.000000 0.012261
v -0.061639 2.062224 0.012261
v -0.062846 -1.000000 -0.000000
v -0.062846 2.062224 -0.000000
v -0.061639 -1.000000 -0.012261
v -0.061639 2.062224 -0.012261
v -0.058062 -1.000000 -0.024050
v -0.058062 2.062224 -0.024050
v -0.052255 -1.000000 -0.034916
v -0.052255 2.062224 -0.034916
v -0.044439 -1.000000 -0.044439
v -0.044439 2.062224 -0.044439
v -0.034916 -1.000000 -0.052255
v -0.034916 2.062224 -0.052255
v -0.024050 -1.000000 -0.058062
v -0.024050 2.062224 -0.058062
v -0.012261 -1.000000 -0.061639
v -0.012261 2.062224 -0.061639
vn -0.0000 -0.0000 -1.0000
vn 0.0980 -0.0000 -0.9952
vn 0.2903 -0.0000 -0.9569
vn 0.4714 -0.0000 -0.8819
vn 0.6344 -0.0000 -0.7730
vn 0.7730 -0.0000 -0.6344
vn 0.8819 -0.0000 -0.4714
vn 0.9569 -0.0000 -0.2903
vn 0.9952 -0.0000 -0.0980
vn 0.9952 -0.0000 0.0980
vn 0.9569 -0.0000 0.2903
vn 0.8819 -0.0000 0.4714
vn 0.7730 -0.0000 0.6344
vn 0.6344 -0.0000 0.7730
vn 0.4714 -0.0000 0.8819
vn 0.2903 -0.0000 0.9569
vn 0.0980 -0.0000 0.9952
vn -0.0980 -0.0000 0.9952
vn -0.2903 -0.0000 0.9569
vn -0.4714 -0.0000 0.8819
vn -0.6344 -0.0000 0.7730
vn -0.7730 -0.0000 0.6344
vn -0.8819 -0.0000 0.4714
vn -0.9569 -0.0000 0.2903
vn -0.9952 -0.0000 0.0980
vn -0.9952 -0.0000 -0.0980
vn -0.9569 -0.0000 -0.2903
vn -0.8819 -0.0000 -0.4714
vn -0.7730 -0.0000 -0.6344
vn -0.6344 -0.0000 -0.7730
vn -0.4714 -0.0000 -0.8819
vn -0.0000 1.0000 -0.0000
vn -0.2903 -0.0000 -0.9569
vn -0.0980 -0.0000 -0.9952
vn -0.0000 -1.0000 -0.0000
vn 0.0001 1.0000 -0.0000
vn -0.0001 1.0000 -0.0000
vn 0.0001 -1.0000 -0.0000
vn -0.0001 -1.0000 -0.0000
vt 0.000159 0.000159
vt 0.661301 0.819341
vt 0.000159 0.819341
vt 0.917080 0.000159
vt 0.661618 0.016125
vt 0.661618 0.000159
vt 0.917080 0.016125
vt 0.661618 0.032091
vt 0.917080 0.032091
vt 0.661618 0.048058
vt 0.917080 0.048058
vt 0.661618 0.064024
vt 0.917080 0.064024
vt 0.661618 0.079990
vt 0.917080 0.079990
vt 0.661618 0.095957
vt 0.917080 0.095957
vt 0.661618 0.111923
vt 0.917080 0.111923
vt 0.661618 0.127889
vt 0.917080 0.127889
vt 0.661618 0.143856
vt 0.917080 0.143856
vt 0.661618 0.159822
vt 0.917080 0.159822
vt 0.661618 0.175789
vt 0.917080 0.175789
vt 0.661618 0.191755
vt 0.917080 0.191755
vt 0.661618 0.207721
vt 0.917080 0.207721
vt 0.661618 0.223688
vt 0.917080 0.223688
vt 0.661618 0.239654
vt 0.917080 0.239654
vt 0.661618 0.255620
vt 0.917080 0.255620
vt 0.661618 0.271587
vt 0.917080 0.271587
vt 0.661618 0.287553
vt 0.917080 0.287553
vt 0.661618 0.303520
vt 0.917080 0.303520
vt 0.661618 0.319486
vt 0.917080 0.319486
vt 0.661618 0.335452
vt 0.917080 0.335452
vt 0.661618 0.351419
vt 0.917080 0.351419
vt 0.661618 0.367385
vt 0.917080 0.367385
vt 0.661618 0.383351
vt 0.917080 0.383351
vt 0.661618 0.399318
vt 0.917080 0.399318
vt 0.661618 0.415284
vt 0.917080 0.415284
vt 0.661618 0.431250
vt 0.917080 0.431250
vt 0.661618 0.447217
vt 0.917080 0.447217
vt 0.661618 0.463183
vt 0.917080 0.463183
vt 0.661618 0.479150
vt 0.666308 0.597835
vt 0.819245 0.516089
vt 0.900991 0.669026
vt 0.917080 0.479150
vt 0.661618 0.495116
vt 0.917080 0.495116
vt 0.661618 0.511082
vt 0.905681 0.865791
vt 0.771631 0.755779
vt 0.661618 0.889829
vt 0.661301 0.000159
vt 0.891792 0.691234
vt 0.878437 0.711221
vt 0.861440 0.728219
vt 0.841453 0.741573
vt 0.819245 0.750772
vt 0.795669 0.755462
vt 0.771631 0.755462
vt 0.748054 0.750772
vt 0.725846 0.741573
vt 0.705859 0.728218
vt 0.688862 0.711221
vt 0.675507 0.691234
vt 0.666308 0.669026
vt 0.661618 0.645450
vt 0.661618 0.621412
vt 0.675507 0.575627
vt 0.688862 0.555640
vt 0.705859 0.538643
vt 0.725846 0.525288
vt 0.748054 0.516089
vt 0.771631 0.511399
vt 0.795669 0.511399
vt 0.841453 0.525288
vt 0.861440 0.538643
vt 0.878438 0.555640
vt 0.891792 0.575627
vt 0.900991 0.597835
vt 0.905681 0.621412
vt 0.905681 0.645450
vt 0.917080 0.511082
vt 0.666308 0.913405
vt 0.675507 0.935614
vt 0.688862 0.955601
vt 0.705859 0.972598
vt 0.725846 0.985953
vt 0.748054 0.995152
vt 0.771631 0.999841
vt 0.795669 0.999841
vt 0.819245 0.995152
vt 0.841453 0.985953
vt 0.861440 0.972598
vt 0.878437 0.955601
vt 0.891792 0.935614
vt 0.900991 0.913405
vt 0.905681 0.889829
vt 0.900991 0.842215
vt 0.891792 0.820007
vt 0.878437 0.800020
vt 0.861440 0.783022
vt 0.841453 0.769668
vt 0.819245 0.760469
vt 0.795669 0.755779
vt 0.748054 0.760469
vt 0.725846 0.769668
vt 0.705859 0.783022
vt 0.688862 0.800020
vt 0.675507 0.820007
vt 0.666308 0.842215
vt 0.661618 0.865791
s 0
usemtl マテリアル
f 3/1/1 2/2/1 1/3/1
f 6/4/2 7/5/2 5/6/2
f 8/7/3 9/8/3 7/5/3
f 10/9/4 11/10/4 9/8/4
f 12/11/5 13/12/5 11/10/5
f 14/13/6 15/14/6 13/12/6
f 16/15/7 17/16/7 15/14/7
f 18/17/8 19/18/8 17/16/8
f 20/19/9 21/20/9 19/18/9
f 22/21/10 23/22/10 21/20/10
f 24/23/11 25/24/11 23/22/11
f 26/25/12 27/26/12 25/24/12
f 28/27/13 29/28/13 27/26/13
f 30/29/14 31/30/14 29/28/14
f 32/31/15 33/32/15 31/30/15
f 34/33/16 35/34/16 33/32/16
f 36/35/17 37/36/17 35/34/17
f 38/37/18 39/38/18 37/36/18
f 40/39/19 41/40/19 39/38/19
f 42/41/20 43/42/20 41/40/20
f 44/43/21 45/44/21 43/42/21
f 46/45/22 47/46/22 45/44/22
f 48/47/23 49/48/23 47/46/23
f 50/49/24 51/50/24 49/48/24
f 52/51/25 53/52/25 51/50/25
f 54/53/26 55/54/26 53/52/26
f 56/55/27 57/56/27 55/54/27
f 58/57/28 59/58/28 57/56/28
f 60/59/29 61/60/29 59/58/29
f 62/61/30 63/62/30 61/60/30
f 64/63/31 65/64/31 63/62/31
f 42/65/32 26/66/32 10/67/32
f 66/68/33 67/69/33 65/64/33
f 68/70/34 5/71/34 67/69/34
f 35/72/35 51/73/35 67/74/35
f 3/1/1 4/75/1 2/2/1
f 6/4/2 8/7/2 7/5/2
f 8/7/3 10/9/3 9/8/3
f 10/9/4 12/11/4 11/10/4
f 12/11/5 14/13/5 13/12/5
f 14/13/6 16/15/6 15/14/6
f 16/15/7 18/17/7 17/16/7
f 18/17/8 20/19/8 19/18/8
f 20/19/9 22/21/9 21/20/9
f 22/21/10 24/23/10 23/22/10
f 24/23/11 26/25/11 25/24/11
f 26/25/12 28/27/12 27/26/12
f 28/27/13 30/29/13 29/28/13
f 30/29/14 32/31/14 31/30/14
f 32/31/15 34/33/15 33/32/15
f 34/33/16 36/35/16 35/34/16
f 36/35/17 38/37/17 37/36/17
f 38/37/18 40/39/18 39/38/18
f 40/39/19 42/41/19 41/40/19
f 42/41/20 44/43/20 43/42/20
f 44/43/21 46/45/21 45/44/21
f 46/45/22 48/47/22 47/46/22
f 48/47/23 50/49/23 49/48/23
f 50/49/24 52/51/24 51/50/24
f 52/51/25 54/53/25 53/52/25
f 54/53/26 56/55/26 55/54/26
f 56/55/27 58/57/27 57/56/27
f 58/57/28 60/59/28 59/58/28
f 60/59/29 62/61/29 61/60/29
f 62/61/30 64/63/30 63/62/30
f 64/63/31 66/68/31 65/64/31
f 10/67/32 8/76/32 6/77/32
f 6/77/32 68/78/32 66/79/32
f 66/79/32 64/80/32 62/81/32
f 62/81/32 60/82/32 58/83/32
f 58/83/36 56/84/36 54/85/36
f 54/85/32 52/86/32 50/87/32
f 50/87/32 48/88/32 46/89/32
f 46/89/36 44/90/36 42/65/36
f 42/65/32 40/91/32 38/92/32
f 38/92/32 36/93/32 34/94/32
f 34/94/32 32/95/32 30/96/32
f 30/96/32 28/97/32 26/66/32
f 26/66/32 24/98/32 22/99/32
f 22/99/37 20/100/37 18/101/37
f 18/101/32 16/102/32 14/103/32
f 14/103/37 12/104/37 10/67/37
f 10/67/32 6/77/32 66/79/32
f 66/79/32 62/81/32 58/83/32
f 58/83/32 54/85/32 50/87/32
f 50/87/32 46/89/32 42/65/32
f 42/65/32 38/92/32 34/94/32
f 34/94/32 30/96/32 26/66/32
f 26/66/32 22/99/32 18/101/32
f 18/101/32 14/103/32 10/67/32
f 10/67/32 66/79/32 58/83/32
f 58/83/32 50/87/32 42/65/32
f 42/65/32 34/94/32 26/66/32
f 26/66/32 18/101/32 10/67/32
f 10/67/32 58/83/32 42/65/32
f 66/68/33 68/70/33 67/69/33
f 68/70/34 6/105/34 5/71/34
f 67/74/35 5/106/35 7/107/35
f 7/107/35 9/108/35 11/109/35
f 11/109/35 13/110/35 15/111/35
f 15/111/38 17/112/38 19/113/38
f 19/113/35 21/114/35 23/115/35
f 23/115/39 25/116/39 27/117/39
f 27/117/35 29/118/35 31/119/35
f 31/119/35 33/120/35 35/72/35
f 35/72/35 37/121/35 39/122/35
f 39/122/35 41/123/35 43/124/35
f 43/124/35 45/125/35 47/126/35
f 47/126/38 49/127/38 51/73/38
f 51/73/35 53/128/35 55/129/35
f 55/129/39 57/130/39 59/131/39
f 59/131/35 61/132/35 63/133/35
f 63/133/35 65/134/35 67/74/35
f 67/74/35 7/107/35 11/109/35
f 11/109/35 15/111/35 19/113/35
f 19/113/35 23/115/35 27/117/35
f 27/117/35 31/119/35 35/72/35
f 35/72/35 39/122/35 43/124/35
f 43/124/35 47/126/35 51/73/35
f 51/73/35 55/129/35 59/131/35
f 59/131/35 63/133/35 67/74/35
f 67/74/35 11/109/35 19/113/35
f 19/113/35 27/117/35 35/72/35
f 35/72/35 43/124/35 51/73/35
f 51/73/35 59/131/35 67/74/35
f 67/74/35 19/113/35 35/72/35
